<?xml version="1.0" encoding="UTF-8" standalone="no"?>
<!DOCTYPE svg PUBLIC "-//W3C//DTD SVG 1.1//EN" "http://www.w3.org/Graphics/SVG/1.1/DTD/svg11.dtd">
<svg width="100%" height="100%" viewBox="0 0 4267 4267" version="1.1" xmlns="http://www.w3.org/2000/svg" xmlns:xlink="http://www.w3.org/1999/xlink" xml:space="preserve" xmlns:serif="http://www.serif.com/" style="fill-rule:evenodd;clip-rule:evenodd;stroke-linejoin:round;stroke-miterlimit:2;">
    <g id="Page-1" serif:id="Page 1" transform="matrix(4.166667,0,0,4.166667,0,0)">
        <rect x="0" y="0" width="1024" height="1024" style="fill:none;"/>
        <g>
            <g transform="matrix(1.237162,0,0,1.237162,213.48865,259.651622)">
                <path d="M0,215.644C7.153,186.506 11.015,155.696 19.771,125.99C21.901,118.765 28.473,114.898 35.147,112.393C141.924,72.327 248.75,32.393 355.57,-7.559C358.52,-8.662 370.145,-13.223 365.842,1.077C357.831,27.698 349.868,54.333 341.789,80.933C337.594,94.746 328.518,104.009 315.025,109.084C261.605,129.175 35.84,214.528 10.439,223.997C2.68,226.889 -1.413,224.316 0,215.644" style="fill:rgb(0,55,170);fill-rule:nonzero;"/>
            </g>
            <g transform="matrix(0,-1.237162,-1.237162,0,802.409657,152)">
                <path d="M-56.25,-56.25C-45.895,-18.75 -37.5,-10.355 0,0C-37.5,10.355 -45.895,18.75 -56.25,56.25C-66.605,18.75 -75,10.355 -112.5,0C-75,-10.355 -66.605,-18.75 -56.25,-56.25" style="fill:rgb(49,104,217);fill-rule:nonzero;"/>
            </g>
            <g transform="matrix(1.237162,0,0,1.237162,540.259045,743.175099)">
                <path d="M0,-205.075C-13.436,-186.953 -26.557,-169.63 -36.878,-150.35C-46.992,-131.454 -55.336,-111.83 -62.575,-91.739C-64.906,-85.27 -68.3,-81.199 -74.792,-78.756C-138.807,-54.666 -279.727,0.266 -287.496,0.908C-295.591,1.576 -298.185,0.036 -296.432,-8.194C-293.014,-24.243 -281.463,-76.703 -279.567,-86.974C-277.545,-97.932 -271.477,-105.434 -261.12,-109.323C-177.015,-140.906 -8.768,-203.972 -8.768,-203.972C-8.768,-203.972 -1.631,-206.814 0,-205.075" style="fill:rgb(0,55,170);fill-rule:nonzero;"/>
            </g>
            <g transform="matrix(1.237162,0,0,1.237162,454.208761,593.927258)">
                <path d="M0,197.925C5.946,189.103 11.569,180.771 17.183,172.432C35.557,145.144 48.853,115.593 56.359,83.541C58.171,75.801 62.423,71.129 69.858,68.349C128.187,46.54 186.449,24.555 244.712,2.57C246.006,2.082 253.146,-1.953 257.236,1.761C260.918,5.104 258.897,9.716 258.15,13.693C253.243,39.818 248.382,65.956 243.037,91.993C240.751,103.128 234.36,111.519 223.295,115.707C168.813,136.329 25.272,190.672 7.975,197.2C5.845,198.004 4.634,198.678 0,197.925" style="fill:rgb(0,55,170);fill-rule:nonzero;"/>
            </g>
            <g transform="matrix(1.237162,0,0,1.237162,542.067528,383.599879)">
                <path d="M0,183.463C0.859,169.269 4.577,157.95 7.755,146.564C14.995,120.623 27.063,96.972 42.713,75.149C49.68,65.435 59.016,58.845 70.396,54.746C91.191,47.256 182.281,12.71 207.223,3.456C216.539,0 220.409,3.288 218.476,13.144C213.253,39.793 207.977,66.433 202.41,93.011C200.388,102.659 194.545,109.913 185.259,113.473C157.167,124.244 13.127,178.602 0,183.463" style="fill:rgb(0,55,170);fill-rule:nonzero;"/>
            </g>
            <g transform="matrix(1.237162,0,0,1.237162,414.875309,869.604855)">
                <path d="M0,-114.297C-5.498,-104.434 -12.987,-96.015 -20.696,-87.868C-65.354,-40.668 -119.088,-9.965 -183.57,0.783C-190.59,1.953 -197.873,2.057 -205.01,1.852C-210.741,1.687 -213.425,-0.168 -212.185,-7.845C-211.291,-13.378 -210.061,-19.422 -208.809,-25.179C-206.517,-35.721 -199.9,-42.179 -189.821,-45.91C-141.413,-63.83 -15.904,-110.911 -1.491,-116.354C-0.994,-115.668 -0.497,-114.983 0,-114.297" style="fill:rgb(0,55,170);fill-rule:nonzero;"/>
            </g>
        </g>
    </g>
</svg>
