<?xml version="1.0" encoding="UTF-8" standalone="no"?>
<!DOCTYPE svg PUBLIC "-//W3C//DTD SVG 1.1//EN" "http://www.w3.org/Graphics/SVG/1.1/DTD/svg11.dtd">
<svg width="100%" height="100%" viewBox="0 0 1920 1080" version="1.1" xmlns="http://www.w3.org/2000/svg" xmlns:xlink="http://www.w3.org/1999/xlink" xml:space="preserve" xmlns:serif="http://www.serif.com/" style="fill-rule:evenodd;clip-rule:evenodd;stroke-linejoin:round;stroke-miterlimit:2;">
    <g transform="matrix(1,0,0,1,-25,0)">
        <g transform="matrix(1.399366,0,0,1.399366,-408.241169,-243.644849)">
            <g transform="matrix(1,0,0,1,-199.617541,84.589037)">
                <path d="M1100.498,369.491L1169.298,369.491L1169.298,332.691L991.058,332.691L991.058,369.491L1059.538,369.491L1059.538,566.291L1100.498,566.291L1100.498,369.491Z" style="fill-rule:nonzero;"/>
            </g>
            <g transform="matrix(1,0,0,1,-199.617541,84.589037)">
                <path d="M1176.338,565.651L1215.698,565.651L1215.698,450.131C1225.618,436.051 1238.098,428.371 1255.378,428.371C1264.658,428.371 1275.538,432.531 1280.658,436.371L1291.218,398.611C1284.178,393.491 1271.698,390.291 1259.218,390.291C1241.938,390.291 1225.938,399.251 1215.698,413.651L1215.698,393.811L1176.338,393.811L1176.338,565.651Z" style="fill-rule:nonzero;"/>
            </g>
            <g transform="matrix(1,0,0,1,-199.617541,84.589037)">
                <path d="M1310.738,364.371L1350.738,364.371L1350.738,323.731L1310.738,323.731L1310.738,364.371ZM1311.058,565.971L1350.738,565.971L1350.738,393.171L1311.058,393.171L1311.058,565.971Z" style="fill-rule:nonzero;"/>
            </g>
            <g transform="matrix(1,0,0,1,-199.617541,84.589037)">
                <path d="M1470.098,426.451C1492.818,426.451 1510.738,441.811 1510.738,477.651L1510.738,483.731C1510.738,514.451 1493.458,534.611 1468.818,534.611C1455.058,534.611 1438.738,526.291 1432.018,517.011L1432.018,449.171C1439.378,436.051 1456.338,426.451 1470.098,426.451ZM1478.738,390.611C1458.258,390.611 1441.618,401.171 1431.378,413.331L1431.378,393.491L1392.658,393.491L1392.658,634.771L1432.018,634.771L1432.018,552.851C1441.938,562.451 1460.178,569.491 1478.418,569.491C1518.738,569.491 1552.978,537.811 1552.978,482.131L1552.978,478.291C1552.978,411.731 1511.698,390.611 1478.738,390.611Z" style="fill-rule:nonzero;"/>
            </g>
            <g transform="matrix(1,0,0,1,-199.617541,84.589037)">
                <rect x="1588.498" y="316.051" width="39.68" height="249.6" style="fill-rule:nonzero;"/>
            </g>
            <g transform="matrix(1,0,0,1,-199.617541,84.589037)">
                <path d="M1686.418,634.451C1712.338,634.451 1735.378,621.651 1751.058,582.611L1828.178,393.491L1784.658,393.491L1741.138,512.851L1697.298,393.491L1651.858,393.491L1720.978,560.211L1713.618,576.531C1706.578,592.851 1697.938,598.931 1682.258,599.251C1678.098,599.251 1666.258,596.691 1659.218,593.811L1651.538,626.451C1657.938,630.291 1675.858,634.451 1686.418,634.451Z" style="fill-rule:nonzero;"/>
            </g>
        </g>
        <g transform="matrix(0.694444,0,0,0.694444,-6.265556,184.444444)">
            <g transform="matrix(1.237162,0,0,1.237162,213.48865,259.651622)">
                <path d="M0,215.644C7.153,186.506 11.015,155.696 19.771,125.99C21.901,118.765 28.473,114.898 35.147,112.393C141.924,72.327 248.75,32.393 355.57,-7.559C358.52,-8.662 370.145,-13.223 365.842,1.077C357.831,27.698 349.868,54.333 341.789,80.933C337.594,94.746 328.518,104.009 315.025,109.084C261.605,129.175 35.84,214.528 10.439,223.997C2.68,226.889 -1.413,224.316 0,215.644" style="fill:rgb(0,55,170);fill-rule:nonzero;"/>
            </g>
            <g transform="matrix(0,-1.237162,-1.237162,0,802.409657,152)">
                <path d="M-56.25,-56.25C-45.895,-18.75 -37.5,-10.355 0,0C-37.5,10.355 -45.895,18.75 -56.25,56.25C-66.605,18.75 -75,10.355 -112.5,0C-75,-10.355 -66.605,-18.75 -56.25,-56.25" style="fill:rgb(49,104,217);fill-rule:nonzero;"/>
            </g>
            <g transform="matrix(1.237162,0,0,1.237162,540.259045,743.175099)">
                <path d="M0,-205.075C-13.436,-186.953 -26.557,-169.63 -36.878,-150.35C-46.992,-131.454 -55.336,-111.83 -62.575,-91.739C-64.906,-85.27 -68.3,-81.199 -74.792,-78.756C-138.807,-54.666 -279.727,0.266 -287.496,0.908C-295.591,1.576 -298.185,0.036 -296.432,-8.194C-293.014,-24.243 -281.463,-76.703 -279.567,-86.974C-277.545,-97.932 -271.477,-105.434 -261.12,-109.323C-177.015,-140.906 -8.768,-203.972 -8.768,-203.972C-8.768,-203.972 -1.631,-206.814 0,-205.075" style="fill:rgb(0,55,170);fill-rule:nonzero;"/>
            </g>
            <g transform="matrix(1.237162,0,0,1.237162,454.208761,593.927258)">
                <path d="M0,197.925C5.946,189.103 11.569,180.771 17.183,172.432C35.557,145.144 48.853,115.593 56.359,83.541C58.171,75.801 62.423,71.129 69.858,68.349C128.187,46.54 186.449,24.555 244.712,2.57C246.006,2.082 253.146,-1.953 257.236,1.761C260.918,5.104 258.897,9.716 258.15,13.693C253.243,39.818 248.382,65.956 243.037,91.993C240.751,103.128 234.36,111.519 223.295,115.707C168.813,136.329 25.272,190.672 7.975,197.2C5.845,198.004 4.634,198.678 0,197.925" style="fill:rgb(0,55,170);fill-rule:nonzero;"/>
            </g>
            <g transform="matrix(1.237162,0,0,1.237162,542.067528,383.599879)">
                <path d="M0,183.463C0.859,169.269 4.577,157.95 7.755,146.564C14.995,120.623 27.063,96.972 42.713,75.149C49.68,65.435 59.016,58.845 70.396,54.746C91.191,47.256 182.281,12.71 207.223,3.456C216.539,0 220.409,3.288 218.476,13.144C213.253,39.793 207.977,66.433 202.41,93.011C200.388,102.659 194.545,109.913 185.259,113.473C157.167,124.244 13.127,178.602 0,183.463" style="fill:rgb(0,55,170);fill-rule:nonzero;"/>
            </g>
            <g transform="matrix(1.237162,0,0,1.237162,414.875309,869.604855)">
                <path d="M0,-114.297C-5.498,-104.434 -12.987,-96.015 -20.696,-87.868C-65.354,-40.668 -119.088,-9.965 -183.57,0.783C-190.59,1.953 -197.873,2.057 -205.01,1.852C-210.741,1.687 -213.425,-0.168 -212.185,-7.845C-211.291,-13.378 -210.061,-19.422 -208.809,-25.179C-206.517,-35.721 -199.9,-42.179 -189.821,-45.91C-141.413,-63.83 -15.904,-110.911 -1.491,-116.354C-0.994,-115.668 -0.497,-114.983 0,-114.297" style="fill:rgb(0,55,170);fill-rule:nonzero;"/>
            </g>
        </g>
    </g>
</svg>
