<?xml version="1.0" encoding="UTF-8" standalone="no"?>
<!DOCTYPE svg PUBLIC "-//W3C//DTD SVG 1.1//EN" "http://www.w3.org/Graphics/SVG/1.1/DTD/svg11.dtd">
<svg width="100%" height="100%" viewBox="0 0 2000 2000" version="1.1" xmlns="http://www.w3.org/2000/svg" xmlns:xlink="http://www.w3.org/1999/xlink" xml:space="preserve" xmlns:serif="http://www.serif.com/" style="fill-rule:evenodd;clip-rule:evenodd;stroke-linejoin:round;stroke-miterlimit:2;">
    <g transform="matrix(1,0,0,1,-4100,0)">
        <rect id="Artboard3" x="4100" y="0" width="2000" height="2000" style="fill:none;"/>
        <g id="Artboard31" serif:id="Artboard3">
            <g transform="matrix(1,0,0,1,3490.661607,686.414343)">
                <g>
                    <g transform="matrix(1066.666667,0,0,1066.666667,607.776775,703.689079)">
                        <path d="M0.883,-0.713L0.522,-0.713L0.522,-0.807L0.408,-0.807L0.408,-0.713L0.055,-0.713L0.055,-0.61L0.883,-0.61L0.883,-0.713ZM0.27,-0.336L0.27,-0.452L0.668,-0.452L0.668,-0.336L0.27,-0.336ZM0.782,-0.544L0.163,-0.544L0.163,-0.245L0.411,-0.245L0.411,-0.044C0.411,-0.032 0.407,-0.029 0.392,-0.028C0.375,-0.026 0.315,-0.027 0.265,-0.029C0.28,-0 0.296,0.042 0.3,0.072C0.376,0.072 0.432,0.072 0.471,0.058C0.512,0.042 0.522,0.015 0.522,-0.04L0.522,-0.245L0.782,-0.245L0.782,-0.544ZM0.728,-0.207L0.63,-0.159C0.689,-0.096 0.763,-0.008 0.794,0.048L0.899,-0.006C0.863,-0.062 0.786,-0.146 0.728,-0.207ZM0.298,-0.17L0.189,-0.206C0.158,-0.146 0.092,-0.068 0.028,-0.022C0.054,-0.01 0.093,0.019 0.115,0.04C0.183,-0.014 0.252,-0.096 0.298,-0.17Z" style="fill:white;fill-rule:nonzero;"/>
                    </g>
                    <g transform="matrix(1066.666667,0,0,1066.666667,1607.776775,703.689079)">
                        <path d="M0.401,-0.706L0.302,-0.706L0.302,-0.798L0.203,-0.798L0.203,-0.706L0.077,-0.706L0.077,-0.612L0.203,-0.612L0.203,-0.531L0.036,-0.531L0.036,-0.438L0.24,-0.438C0.174,-0.374 0.097,-0.32 0.012,-0.279C0.03,-0.259 0.062,-0.213 0.073,-0.19C0.091,-0.2 0.108,-0.209 0.125,-0.221L0.125,0.069L0.22,0.069L0.22,0.02L0.382,0.02L0.382,0.057L0.482,0.057L0.482,-0.366L0.309,-0.366C0.331,-0.389 0.353,-0.413 0.373,-0.438L0.517,-0.438L0.517,-0.531L0.44,-0.531C0.481,-0.595 0.517,-0.664 0.546,-0.737L0.449,-0.766C0.435,-0.728 0.419,-0.692 0.401,-0.657L0.401,-0.706ZM0.819,-0.754L0.548,-0.754L0.548,0.072L0.652,0.072L0.652,-0.652L0.778,-0.652C0.755,-0.58 0.722,-0.484 0.692,-0.415C0.771,-0.342 0.794,-0.271 0.794,-0.219C0.795,-0.188 0.787,-0.166 0.77,-0.154C0.759,-0.148 0.745,-0.145 0.73,-0.146C0.713,-0.146 0.693,-0.146 0.668,-0.147C0.686,-0.118 0.694,-0.073 0.695,-0.044C0.727,-0.042 0.756,-0.042 0.778,-0.046C0.804,-0.048 0.826,-0.058 0.845,-0.07C0.881,-0.094 0.896,-0.14 0.897,-0.209C0.897,-0.271 0.879,-0.345 0.797,-0.428C0.836,-0.513 0.88,-0.619 0.913,-0.71L0.835,-0.757L0.819,-0.754ZM0.22,-0.065L0.22,-0.135L0.382,-0.135L0.382,-0.065L0.22,-0.065ZM0.22,-0.217L0.22,-0.281L0.382,-0.281L0.382,-0.217L0.22,-0.217ZM0.302,-0.531L0.302,-0.612L0.377,-0.612C0.359,-0.584 0.341,-0.557 0.322,-0.531L0.302,-0.531Z" style="fill:white;fill-rule:nonzero;"/>
                    </g>
                </g>
            </g>
        </g>
    </g>
</svg>
