<?xml version="1.0" encoding="UTF-8" standalone="no"?>
<!DOCTYPE svg PUBLIC "-//W3C//DTD SVG 1.1//EN" "http://www.w3.org/Graphics/SVG/1.1/DTD/svg11.dtd">
<svg width="100%" height="100%" viewBox="0 0 2000 2000" version="1.1" xmlns="http://www.w3.org/2000/svg" xmlns:xlink="http://www.w3.org/1999/xlink" xml:space="preserve" xmlns:serif="http://www.serif.com/" style="fill-rule:evenodd;clip-rule:evenodd;stroke-linejoin:round;stroke-miterlimit:2;">
    <g transform="matrix(1,0,0,1,-2050,0)">
        <rect id="Artboard2" x="2050" y="0" width="2000" height="2000" style="fill:none;"/>
        <g id="Artboard21" serif:id="Artboard2">
            <g transform="matrix(1,0,0,1,1433.369954,685.372678)">
                <g>
                    <g transform="matrix(1066.666667,0,0,1066.666667,607.776775,703.689079)">
                        <path d="M0.887,-0.552L0.514,-0.552C0.523,-0.641 0.524,-0.728 0.525,-0.806L0.407,-0.806C0.407,-0.729 0.408,-0.641 0.398,-0.552L0.054,-0.552L0.054,-0.44L0.381,-0.44C0.343,-0.276 0.253,-0.118 0.036,-0.021C0.066,0.003 0.1,0.041 0.116,0.069C0.318,-0.028 0.42,-0.178 0.472,-0.338C0.544,-0.152 0.655,-0.011 0.827,0.07C0.845,0.038 0.879,-0.008 0.906,-0.032C0.729,-0.103 0.614,-0.254 0.552,-0.44L0.887,-0.44L0.887,-0.552Z" style="fill:white;fill-rule:nonzero;"/>
                    </g>
                    <g transform="matrix(1066.666667,0,0,1066.666667,1607.776775,703.689079)">
                        <path d="M0.886,-0.754L0.404,-0.754L0.404,-0.48C0.404,-0.334 0.396,-0.133 0.291,0.006C0.313,0.017 0.355,0.052 0.373,0.069C0.456,-0.04 0.487,-0.2 0.498,-0.34C0.526,-0.26 0.562,-0.189 0.605,-0.128C0.557,-0.078 0.5,-0.041 0.436,-0.016C0.455,0.006 0.483,0.046 0.496,0.073C0.563,0.042 0.623,0.003 0.674,-0.047C0.723,0.002 0.781,0.042 0.85,0.072C0.864,0.044 0.896,0.003 0.919,-0.019C0.851,-0.044 0.792,-0.081 0.742,-0.128C0.807,-0.221 0.851,-0.34 0.873,-0.493L0.807,-0.513L0.789,-0.509L0.503,-0.509L0.503,-0.657L0.886,-0.657L0.886,-0.754ZM0.274,-0.766L0.068,-0.766L0.068,0.072L0.162,0.072L0.162,-0.67L0.241,-0.67C0.226,-0.606 0.204,-0.523 0.184,-0.462C0.239,-0.398 0.253,-0.341 0.253,-0.295C0.253,-0.268 0.247,-0.248 0.237,-0.239C0.23,-0.234 0.221,-0.233 0.209,-0.232C0.197,-0.232 0.185,-0.233 0.167,-0.233C0.182,-0.207 0.19,-0.167 0.191,-0.142C0.212,-0.141 0.235,-0.143 0.251,-0.145C0.272,-0.146 0.29,-0.153 0.305,-0.164C0.334,-0.184 0.348,-0.223 0.348,-0.282C0.348,-0.337 0.334,-0.401 0.275,-0.475C0.304,-0.548 0.335,-0.648 0.359,-0.73L0.289,-0.77L0.274,-0.766ZM0.572,-0.413L0.755,-0.413C0.736,-0.335 0.708,-0.268 0.671,-0.21C0.628,-0.269 0.595,-0.338 0.572,-0.413Z" style="fill:white;fill-rule:nonzero;"/>
                    </g>
                </g>
            </g>
        </g>
    </g>
</svg>
