<?xml version="1.0" encoding="UTF-8" standalone="no"?>
<!DOCTYPE svg PUBLIC "-//W3C//DTD SVG 1.1//EN" "http://www.w3.org/Graphics/SVG/1.1/DTD/svg11.dtd">
<svg width="100%" height="100%" viewBox="0 0 2000 2000" version="1.1" xmlns="http://www.w3.org/2000/svg" xmlns:xlink="http://www.w3.org/1999/xlink" xml:space="preserve" xmlns:serif="http://www.serif.com/" style="fill-rule:evenodd;clip-rule:evenodd;stroke-linejoin:round;stroke-miterlimit:2;">
    <rect id="Artboard1" x="0" y="0" width="2000" height="2000" style="fill:none;"/>
    <g id="Artboard11" serif:id="Artboard1">
        <g transform="matrix(1,0,0,1,-600.484243,673.393535)">
            <g>
                <g transform="matrix(1066.666667,0,0,1066.666667,685.901775,703.689079)">
                    <path d="M0.362,-0.598L0.362,-0.73L0.236,-0.73L0.236,-0.598C0.235,-0.431 0.166,-0.259 0.014,-0.19L0.092,-0.089C0.193,-0.139 0.262,-0.234 0.301,-0.351C0.337,-0.241 0.403,-0.153 0.502,-0.104L0.578,-0.204C0.43,-0.269 0.362,-0.431 0.362,-0.598ZM0.776,-0.799L0.653,-0.799L0.653,-0.52L0.479,-0.52L0.479,-0.419L0.653,-0.419L0.653,0.092L0.776,0.092L0.776,-0.799Z" style="fill:white;fill-rule:nonzero;"/>
                </g>
                <g transform="matrix(1066.666667,0,0,1066.666667,1607.776775,703.689079)">
                    <path d="M0.432,-0.791C0.227,-0.791 0.107,-0.737 0.107,-0.639C0.107,-0.541 0.227,-0.487 0.432,-0.487C0.636,-0.487 0.754,-0.541 0.755,-0.639C0.754,-0.737 0.636,-0.791 0.432,-0.791ZM0.432,-0.699C0.563,-0.699 0.626,-0.68 0.626,-0.639C0.626,-0.596 0.563,-0.578 0.432,-0.578C0.301,-0.578 0.237,-0.596 0.238,-0.639C0.237,-0.68 0.301,-0.699 0.432,-0.699ZM0.837,-0.447L0.026,-0.447L0.026,-0.35L0.368,-0.35L0.368,-0.29L0.12,-0.29L0.12,-0.199L0.615,-0.199L0.615,-0.15L0.121,-0.15L0.121,0.084L0.762,0.084L0.762,-0.01L0.243,-0.01L0.243,-0.063L0.738,-0.063L0.738,-0.29L0.493,-0.29L0.493,-0.35L0.837,-0.35L0.837,-0.447Z" style="fill:white;fill-rule:nonzero;"/>
                </g>
            </g>
        </g>
    </g>
</svg>
